<svg height="512" viewBox="0 0 24 24" width="512" xmlns="http://www.w3.org/2000/svg"><g id="_01_align_center" data-name="01 align center"><path d="m10.583 20.529a5.028 5.028 0 0 1 -7.111-7.109l4.262-4.265-1.415-1.414-4.261 4.265a7.027 7.027 0 0 0 9.942 9.937l4.262-4.262-1.414-1.414z"/><path d="m21.944 2.061a6.979 6.979 0 0 0 -4.969-2.061 6.983 6.983 0 0 0 -4.968 2.057l-4.267 4.263 1.414 1.415 4.265-4.262a4.993 4.993 0 0 1 3.554-1.473 5.028 5.028 0 0 1 3.554 8.583l-4.262 4.262 1.415 1.415 4.262-4.26a7.037 7.037 0 0 0 .002-9.939z"/><path d="m6.976 11.001h10.047v2h-10.047z" transform="matrix(.707 -.707 .707 .707 -4.971 12)"/></g></svg>