<svg id="Layer_1" height="512" viewBox="0 0 24 24" width="512" xmlns="http://www.w3.org/2000/svg" data-name="Layer 1"><path d="m10.207 12.475-1.414 1.414-2.257-2.257c-.775-.775-.775-2.036 0-2.812l2.255-2.255 1.414 1.414-2.255 2.255zm5 1.414 2.257-2.257c.775-.775.775-2.036 0-2.812l-2.255-2.255-1.414 1.414 2.255 2.239-2.257 2.257zm8.793 1.111v3c0 1.654-1.346 3-3 3h-18c-1.654 0-3-1.346-3-3v-3h2v-12h20v12zm-20 0h4.914l1 1h4.172l1-1h4.914v-10h-16zm18 2h-6.086l-1 1h-5.828l-1-1h-6.086v1c0 .551.449 1 1 1h18c.551 0 1-.449 1-1z"/></svg>