<svg id="Layer_1" viewBox="0 0 24 24" xmlns="http://www.w3.org/2000/svg" data-name="Layer 1"><path d="m22 20c0-1.654-1.346-3-3-3h-3v-2c0-.551.449-1 1-1h3c2.206 0 4-1.794 4-4s-1.794-4-4-4h-3.318c-.845-.172-7.818-1.693-10.685-5.592l-.3-.408h-1.696v14h1.696l.3-.408c2.859-3.887 9.832-5.418 10.685-5.592h3.319c1.103 0 2 .897 2 2s-.897 2-2 2h-3c-1.654 0-3 1.346-3 3v2h-9.001c-1.654 0-3 1.346-3 3v2h-2v2h24v-2h-2zm-16-9.327v-7.346c2.038 1.776 4.685 2.949 6.8 3.673-2.116.725-4.763 1.897-6.8 3.673zm-2 9.327c0-.551.449-1 1-1h14c.551 0 1 .449 1 1v2h-16z"/></svg>