<svg id="Layer_1" height="512" viewBox="0 0 24 24" width="512" xmlns="http://www.w3.org/2000/svg" data-name="Layer 1"><path d="m17.795 9.652.924-1.774c.635-1.223.156-2.735-1.08-3.379l-6.814-3.407c-4.788-2.488-8.476-.125-9.758 1.47l-.77.959 6.789 3.459-7.07 14.225 5.325 2.768 7.083-14.273 2.001 1.019c.361.188.754.282 1.149.282.254 0 .509-.039.757-.117.637-.201 1.157-.639 1.464-1.231zm-13.34 11.606-1.774-.922 6.187-12.448 1.774.904zm12.489-14.302-.924 1.774c-.083.16-.219.223-.292.246-.075.024-.225.048-.389-.036l-11.734-5.978c1.17-.791 3.341-1.631 6.312-.088l6.813 3.406c.245.128.341.431.215.676zm7.056-1.956v2h-3v-2zm-5.28 6.682 1.85 2.362-1.574 1.232-1.85-2.362zm2.116-3.053 2.613 1.473-.982 1.742-2.613-1.473z"/></svg>