<svg id="Layer_1" height="512" viewBox="0 0 24 24" width="512" xmlns="http://www.w3.org/2000/svg" data-name="Layer 1"><path d="m12.749.024c-3.079-.2-6.01.841-8.258 2.944-2.219 2.076-3.491 5.003-3.491 8.032v6c0 1.654 1.346 3 3 3h1v4h14v-4h1c1.654 0 3-1.346 3-3v-5.647c0-5.969-4.503-10.945-10.251-11.329zm8.251 16.976c0 .552-.449 1-1 1h-3v4h-10v-4h-3c-.551 0-1-.448-1-1v-6c0-2.478 1.041-4.872 2.856-6.571 1.84-1.722 4.238-2.571 6.759-2.408 4.701.313 8.384 4.413 8.384 9.332v5.647zm-11-6c0 1.105-.895 2-2 2s-2-.895-2-2 .895-2 2-2 2 .895 2 2zm8 0c0 1.105-.895 2-2 2s-2-.895-2-2 .895-2 2-2 2 .895 2 2zm-4 5.997c0 1.105-.895 1-2 1s-2 .105-2-1 .895-3 2-3 2 1.895 2 3z"/></svg>