<svg id="Layer_1" height="512" viewBox="0 0 24 24" width="512" xmlns="http://www.w3.org/2000/svg" data-name="Layer 1"><path d="m5 15h3v-3h-3zm18-3.369v12.369h-22v-12.368c.681-.801 2-2.699 2-3.632v-4.606c0-1.358.905-2.549 2.202-2.896 1.847-.492 3.719-.498 3.798-.498h6c.079 0 1.951.006 3.798.498 1.297.347 2.202 1.537 2.202 2.896v4.606c0 .973 1.426 2.958 2 3.631zm-12 .545-3.656-10.055c-.503.064-1.07.161-1.626.309-.423.113-.718.509-.718.963v4.606c0 1.646-1.405 3.602-2 4.356v9.644h8zm1-3.102 2.573-7.074h-5.145l2.573 7.074zm9 3.282c-.595-.754-2-2.71-2-4.356v-4.606c0-.454-.295-.85-.718-.963-.556-.148-1.123-.246-1.626-.309l-3.656 10.055v9.824h8zm-6 2.644h4l-2-3zm-7 3.5c0 .828-.672 1.5-1.5 1.5s-1.5-.672-1.5-1.5.672-1.5 1.5-1.5 1.5.672 1.5 1.5z"/></svg>