<svg id="Layer_1" height="512" viewBox="0 0 24 24" width="512" xmlns="http://www.w3.org/2000/svg" data-name="Layer 1"><path d="m24 7v-2h-2c0-1.66-1.34-3-3-3v-2h-2v2h-2v-2h-2v2h-2v-2h-2v2h-2v-2h-2v2c-1.66 0-3 1.34-3 3h-2v2h2v2h-2v2h2v2h-2v2h2v2h-2v2h2c0 1.66 1.34 3 3 3v2h2v-2h2v2h2v-2h2v2h2v-2h2v2h2v-2c1.66 0 3-1.34 3-3h2v-2h-2v-2h2v-2h-2v-2h2v-2h-2v-2zm-4 12c0 .55-.45 1-1 1h-14c-.55 0-1-.45-1-1v-14c0-.55.45-1 1-1h14c.55 0 1 .45 1 1zm-13-2h10v-10h-10zm2-8h6v6h-6z"/><path d="m24 7v-2h-2c0-1.66-1.34-3-3-3v-2h-2v2h-2v-2h-2v2h-2v-2h-2v2h-2v-2h-2v2c-1.66 0-3 1.34-3 3h-2v2h2v2h-2v2h2v2h-2v2h2v2h-2v2h2c0 1.66 1.34 3 3 3v2h2v-2h2v2h2v-2h2v2h2v-2h2v2h2v-2c1.66 0 3-1.34 3-3h2v-2h-2v-2h2v-2h-2v-2h2v-2h-2v-2zm-4 12c0 .55-.45 1-1 1h-14c-.55 0-1-.45-1-1v-14c0-.55.45-1 1-1h14c.55 0 1 .45 1 1zm-13-2h10v-10h-10zm2-8h6v6h-6z"/></svg>