<svg id="Layer_1" enable-background="new 0 0 24 24" height="512" viewBox="0 0 24 24" width="512" xmlns="http://www.w3.org/2000/svg"><path d="m20.4 3h-16.8l-.3.3c-2.1 2.4-3.3 5.5-3.3 8.7 0 5.5 2.2 10 5 10 2.2 0 3.3-3.2 3.8-5h6.4c.5 1.8 1.6 5 3.8 5 2.8 0 5-4.5 5-10 0-3.2-1.2-6.3-3.3-8.7zm-1.4 17c-.6 0-1.6-2.1-2-4.2l-.2-.8h-9.6l-.2.8c-.4 2.1-1.4 4.2-2 4.2-1 0-3-3.1-3-8 0-2.5.9-5 2.5-7h15.1c1.6 2 2.4 4.5 2.4 7 0 4.9-2 8-3 8z"/><path d="m8 7h-2v2h-2v2h2v2h2v-2h2v-2h-2z"/><circle cx="18.5" cy="8.5" r="1.5"/><circle cx="15.5" cy="11.5" r="1.5"/></svg>